<?xml version="1.0" encoding="UTF-8" standalone="no"?>
<!DOCTYPE svg PUBLIC "-//W3C//DTD SVG 1.1//EN"
 "http://www.w3.org/Graphics/SVG/1.1/DTD/svg11.dtd">
<!-- Generated by graphviz version 2.26.3 (20100126.1600)
 -->
<!-- Title: G Pages: 1 -->
<svg width="464pt" height="220pt"
 viewBox="0.00 0.00 464.00 220.00" xmlns="http://www.w3.org/2000/svg" xmlns:xlink="http://www.w3.org/1999/xlink">
<g id="graph1" class="graph" transform="scale(1 1) rotate(0) translate(4 216)">
<title>G</title>
<polygon fill="white" stroke="white" points="-4,5 -4,-216 461,-216 461,5 -4,5"/>
<g id="graph2" class="cluster"><title>cluster_Moontoast</title>
<polyline fill="none" stroke="gray" points="266,-8 436,-8 "/>
<path fill="none" stroke="gray" d="M436,-8C442,-8 448,-14 448,-20"/>
<polyline fill="none" stroke="gray" points="448,-20 448,-192 "/>
<path fill="none" stroke="gray" d="M448,-192C448,-198 442,-204 436,-204"/>
<polyline fill="none" stroke="gray" points="436,-204 266,-204 "/>
<path fill="none" stroke="gray" d="M266,-204C260,-204 254,-198 254,-192"/>
<polyline fill="none" stroke="gray" points="254,-192 254,-20 "/>
<path fill="none" stroke="gray" d="M254,-20C254,-14 260,-8 266,-8"/>
<text text-anchor="middle" x="351" y="-190.1" font-family="Times Roman,serif" font-size="11.00" fill="gray">Moontoast</text>
</g>
<g id="graph3" class="cluster"><title>cluster_Moontoast\Math</title>
<polyline fill="none" stroke="gray" points="274,-16 428,-16 "/>
<path fill="none" stroke="gray" d="M428,-16C434,-16 440,-22 440,-28"/>
<polyline fill="none" stroke="gray" points="440,-28 440,-162 "/>
<path fill="none" stroke="gray" d="M440,-162C440,-168 434,-174 428,-174"/>
<polyline fill="none" stroke="gray" points="428,-174 274,-174 "/>
<path fill="none" stroke="gray" d="M274,-174C268,-174 262,-168 262,-162"/>
<polyline fill="none" stroke="gray" points="262,-162 262,-28 "/>
<path fill="none" stroke="gray" d="M262,-28C262,-22 268,-16 274,-16"/>
<text text-anchor="middle" x="351" y="-160.1" font-family="Times Roman,serif" font-size="11.00" fill="gray">Math</text>
</g>
<g id="graph4" class="cluster"><title>cluster_Moontoast\Math\Exception</title>
<polyline fill="none" stroke="gray" points="282,-70 420,-70 "/>
<path fill="none" stroke="gray" d="M420,-70C426,-70 432,-76 432,-82"/>
<polyline fill="none" stroke="gray" points="432,-82 432,-132 "/>
<path fill="none" stroke="gray" d="M432,-132C432,-138 426,-144 420,-144"/>
<polyline fill="none" stroke="gray" points="420,-144 282,-144 "/>
<path fill="none" stroke="gray" d="M282,-144C276,-144 270,-138 270,-132"/>
<polyline fill="none" stroke="gray" points="270,-132 270,-82 "/>
<path fill="none" stroke="gray" d="M270,-82C270,-76 276,-70 282,-70"/>
<text text-anchor="middle" x="351" y="-130.1" font-family="Times Roman,serif" font-size="11.00" fill="gray">Exception</text>
</g>
<!-- \\Moontoast\\Math\\Exception\\ArithmeticException -->
<g id="node4" class="node"><title>\\Moontoast\\Math\\Exception\\ArithmeticException</title>
<a xlink:href="Exception.ArithmeticException.html" xlink:title="ArithmeticException" target="_parent">
<polygon fill="none" stroke="black" points="423,-114 279,-114 279,-78 423,-78 423,-114"/>
<text text-anchor="middle" x="351" y="-93.1" font-family="Courier,monospace" font-size="11.00">ArithmeticException</text>
</a>
</g>
<!-- \\RuntimeException -->
<g id="node8" class="node"><title>\\RuntimeException</title>
<ellipse fill="none" stroke="black" cx="103" cy="-96" rx="103.238" ry="18.3848"/>
<text text-anchor="middle" x="103" y="-92.4" font-family="Times Roman,serif" font-size="14.00" fill="gray">\RuntimeException</text>
</g>
<!-- \\Moontoast\\Math\\Exception\\ArithmeticException&#45;&gt;\\RuntimeException -->
<g id="edge6" class="edge"><title>\\Moontoast\\Math\\Exception\\ArithmeticException&#45;&gt;\\RuntimeException</title>
<path fill="none" stroke="black" d="M278.268,-96C258.861,-96 237.421,-96 216.391,-96"/>
<polygon fill="none" stroke="black" points="216.111,-92.5001 206.111,-96 216.111,-99.5001 216.111,-92.5001"/>
</g>
<!-- \\Moontoast\\Math\\BigNumber -->
<g id="node5" class="node"><title>\\Moontoast\\Math\\BigNumber</title>
<a xlink:href="BigNumber.html" xlink:title="BigNumber" target="_parent">
<polygon fill="none" stroke="black" points="389,-60 313,-60 313,-24 389,-24 389,-60"/>
<text text-anchor="middle" x="351" y="-39.1" font-family="Courier,monospace" font-size="11.00">BigNumber</text>
</a>
</g>
</g>
</svg>
