<?xml version="1.0" encoding="UTF-8" standalone="no"?>
<!DOCTYPE svg PUBLIC "-//W3C//DTD SVG 1.1//EN"
 "http://www.w3.org/Graphics/SVG/1.1/DTD/svg11.dtd">
<!-- Generated by graphviz version 2.26.3 (20100126.1600)
 -->
<!-- Title: G Pages: 1 -->
<svg width="134pt" height="136pt"
 viewBox="0.00 0.00 134.00 136.00" xmlns="http://www.w3.org/2000/svg" xmlns:xlink="http://www.w3.org/1999/xlink">
<g id="graph1" class="graph" transform="scale(1 1) rotate(0) translate(4 132)">
<title>G</title>
<polygon fill="white" stroke="white" points="-4,5 -4,-132 131,-132 131,5 -4,5"/>
<g id="graph2" class="cluster"><title>cluster_Moontoast</title>
<polyline fill="none" stroke="gray" points="20,-8 106,-8 "/>
<path fill="none" stroke="gray" d="M106,-8C112,-8 118,-14 118,-20"/>
<polyline fill="none" stroke="gray" points="118,-20 118,-108 "/>
<path fill="none" stroke="gray" d="M118,-108C118,-114 112,-120 106,-120"/>
<polyline fill="none" stroke="gray" points="106,-120 20,-120 "/>
<path fill="none" stroke="gray" d="M20,-120C14,-120 8,-114 8,-108"/>
<polyline fill="none" stroke="gray" points="8,-108 8,-20 "/>
<path fill="none" stroke="gray" d="M8,-20C8,-14 14,-8 20,-8"/>
<text text-anchor="middle" x="63" y="-106.1" font-family="Times Roman,serif" font-size="11.00" fill="gray">Moontoast</text>
</g>
<g id="graph3" class="cluster"><title>cluster_Moontoast\Math</title>
<polyline fill="none" stroke="gray" points="28,-16 98,-16 "/>
<path fill="none" stroke="gray" d="M98,-16C104,-16 110,-22 110,-28"/>
<polyline fill="none" stroke="gray" points="110,-28 110,-78 "/>
<path fill="none" stroke="gray" d="M110,-78C110,-84 104,-90 98,-90"/>
<polyline fill="none" stroke="gray" points="98,-90 28,-90 "/>
<path fill="none" stroke="gray" d="M28,-90C22,-90 16,-84 16,-78"/>
<polyline fill="none" stroke="gray" points="16,-78 16,-28 "/>
<path fill="none" stroke="gray" d="M16,-28C16,-22 22,-16 28,-16"/>
<text text-anchor="middle" x="63" y="-76.1" font-family="Times Roman,serif" font-size="11.00" fill="gray">Math</text>
</g>
<!-- \\Moontoast\\Math\\BigNumber -->
<g id="node3" class="node"><title>\\Moontoast\\Math\\BigNumber</title>
<a xlink:href="BigNumber.html" xlink:title="BigNumber" target="_parent">
<polygon fill="none" stroke="black" points="101,-60 25,-60 25,-24 101,-24 101,-60"/>
<text text-anchor="middle" x="63" y="-39.1" font-family="Courier,monospace" font-size="11.00">BigNumber</text>
</a>
</g>
</g>
</svg>
